<?xml version="1.0" encoding="UTF-8" standalone="no"?>
<!DOCTYPE svg PUBLIC "-//W3C//DTD SVG 20010904//EN"
"http://www.w3.org/TR/2001/REC-SVG-20010904/DTD/svg10.dtd">
<!-- Created with Sodipodi ("http://www.sodipodi.com/") -->
<svg
   xmlns="http://www.w3.org/2000/svg"
   xmlns:sodipodi="http://sodipodi.sourceforge.net/DTD/sodipodi-0.dtd"
   xmlns:xlink="http://www.w3.org/1999/xlink"
   id="svg602"
   sodipodi:version="0.34"
   width="210mm"
   height="297mm"
   xml:space="preserve"
   sodipodi:docname="icon.svg"><defs
   id="defs604"><linearGradient
   id="linearGradient612"><stop
   style="stop-color:#d9bf3a;stop-opacity:1;"
   offset="0"
   id="stop613" /><stop
   style="stop-color:#cd8f17;stop-opacity:1;"
   offset="1"
   id="stop614" /></linearGradient><linearGradient
   xlink:href="#linearGradient612"
   id="linearGradient615" /><radialGradient
   xlink:href="#linearGradient612"
   id="radialGradient616"
   cx="0.49999997"
   cy="0.5"
   r="0.5"
   fx="0.49999997"
   fy="0.5" /><linearGradient
   xlink:href="#linearGradient612"
   id="linearGradient701"
   x1="1.02130067"
   y1="-1.46422498e-2"
   x2="0.23985964"
   y2="0.89622885" /><radialGradient
   xlink:href="#linearGradient612"
   id="radialGradient702" /><linearGradient
   xlink:href="#linearGradient612"
   id="linearGradient641" /></defs><sodipodi:namedview
   id="base" /><rect
   style="font-size:12;fill:#b38472;fill-rule:evenodd;stroke:#000000;stroke-width:12.97239;stroke-opacity:0.844;"
   id="rect609"
   width="456.538339"
   height="477.717849"
   x="194.504556"
   y="147.183958"
   ry="7.50342156"
   transform="matrix(0.980148,0.198266,-2.266381e-3,0.999997,0,0)" /><rect
   style="font-size:12;fill:#793d38;fill-rule:evenodd;stroke:#000000;stroke-width:11.93477;stroke-opacity:0.844;"
   id="rect617"
   width="85.1202151"
   height="462.822787"
   x="115.983255"
   y="260.177628"
   transform="matrix(0.93543,-0.353513,3.598308e-3,0.999994,0,0)" /><rect
   style="font-size:12;fill:#eeead4;fill-opacity:0.9645;fill-rule:evenodd;stroke:#000000;stroke-width:1.052362;"
   id="rect645"
   width="441.723704"
   height="467.096771"
   x="197.76831"
   y="145.142062"
   transform="matrix(0.977633,0.21032,0,1,0,0)" /><rect
   style="font-size:12;fill:#eeead4;fill-opacity:0.9645;fill-rule:evenodd;stroke:#000000;stroke-width:1.131114;stroke-dashoffset:0;"
   id="rect646"
   width="442.801475"
   height="467.096771"
   x="194.398204"
   y="146.880193"
   transform="matrix(0.975251,0.221101,0,1,0,0)" /><rect
   style="font-size:12;fill:#eeead4;fill-opacity:0.9647;stroke:#000000;stroke-width:1.126139;"
   id="rect647"
   width="443.934227"
   height="467.096771"
   x="188.318772"
   y="148.709529"
   transform="matrix(0.972764,0.231799,0,1,0,0)" /><rect
   style="font-size:12;fill:#eeead4;fill-opacity:0.9647;stroke:#000000;stroke-width:1.127641;"
   id="rect648"
   width="445.120036"
   height="467.096771"
   x="182.227414"
   y="150.687082"
   transform="matrix(0.970173,0.242415,0,1,0,0)" /><rect
   style="font-size:12;fill:#eeead4;fill-opacity:0.9647;stroke:#000000;stroke-width:1.134379;"
   id="rect649"
   width="446.605726"
   height="471.123505"
   x="176.21928"
   y="152.428614"
   transform="matrix(0.966945,0.254984,0,1,0,0)" /><rect
   style="font-size:12;fill:#eeead4;fill-opacity:0.9647;stroke:#000000;stroke-width:1.137744;"
   id="rect650"
   width="449.259728"
   height="471.123505"
   x="170.610867"
   y="152.817981"
   transform="matrix(0.961233,0.275736,0,1,0,0)" /><rect
   style="font-size:12;fill:#eeead4;fill-opacity:0.9647;stroke:#000000;stroke-width:1.135642;"
   id="rect651"
   width="447.599989"
   height="471.123505"
   x="161.228204"
   y="155.93923"
   transform="matrix(0.957651,0.287931,0,1,0,0)" /><rect
   style="font-size:12;fill:#eeead4;fill-opacity:0.9647;stroke:#000000;stroke-width:1.128742;"
   id="rect652"
   width="442.178276"
   height="471.123505"
   x="158.592924"
   y="147.87768"
   transform="matrix(0.93322,0.359305,0,1,0,0)" /><rect
   style="font-size:12;fill:#eeead4;fill-opacity:0.9647;stroke:#000000;stroke-width:1.128744;"
   id="rect653"
   width="442.179713"
   height="471.123505"
   x="148.310739"
   y="154.072195"
   transform="matrix(0.93322,0.359305,0,1,0,0)" /><rect
   style="font-size:12;fill:#eeead4;fill-opacity:0.9647;stroke:#000000;stroke-width:1.12078;"
   id="rect654"
   width="435.959253"
   height="471.123505"
   x="145.429988"
   y="154.106294"
   transform="matrix(0.921925,0.387368,0,1,0,0)" /><rect
   style="font-size:12;fill:#eeead4;fill-opacity:0.9647;stroke:#000000;stroke-width:1.116841;"
   id="rect655"
   width="432.900785"
   height="471.123505"
   x="140.487161"
   y="149.442715"
   transform="matrix(0.894106,0.447855,0,1,0,0)" /><rect
   style="font-size:12;fill:#eeead4;fill-opacity:0.9647;stroke:#000000;stroke-width:1.116841;"
   id="rect656"
   width="432.900593"
   height="471.123505"
   x="133.331604"
   y="155.147259"
   transform="matrix(0.894106,0.447855,0,1,0,0)" /><rect
   style="font-size:12;fill:#eeead4;fill-opacity:0.9647;stroke:#000000;stroke-width:1.116841;"
   id="rect657"
   width="432.900434"
   height="471.123505"
   x="129.753769"
   y="156.749508"
   transform="matrix(0.894106,0.447855,0,1,0,0)" /><rect
   style="font-size:12;fill:#eeead4;fill-opacity:0.9647;stroke:#000000;stroke-width:1.116841;"
   id="rect658"
   width="432.900052"
   height="471.123505"
   x="122.598069"
   y="162.454022"
   transform="matrix(0.894106,0.447855,0,1,0,0)" /><rect
   style="font-size:12;fill:#f1d467;fill-opacity:0.979;fill-rule:evenodd;stroke:#000000;stroke-width:13.70555;stroke-opacity:0.7529;"
   id="rect610"
   width="430.432476"
   height="472.757622"
   x="119.818838"
   y="160.425675"
   ry="7.42551364"
   transform="matrix(0.878707,0.477361,3.146383e-4,1,0,0)" /><text
   style="fill:#792215;stroke:#000000;font-family:Bitstream Charter;font-style:italic;font-weight:bold;font-size:72;fill-opacity:0.7762;stroke-opacity:1;stroke-width:1pt;stroke-linejoin:miter;stroke-linecap:butt;text-anchor:start;writing-mode:lr;"
   x="30.291343"
   y="81.6248832"
   id="text642"
   sodipodi:linespacing="100%"
   xml:space="preserve"
   transform="matrix(4.16762,2.141744,0.232119,6.370165,0,0)"><tspan
   x="30.2913437"
   y="81.6248856"
   sodipodi:role="line"
   id="tspan651"
   style="stroke:#000000;stroke-opacity:1;fill:#792215;fill-opacity:0.7762;">A</tspan></text><text
   style="fill:#a62d27;stroke:#000000;font-family:Bitstream Charter;font-style:italic;font-weight:bold;font-size:64;fill-opacity:0.8936;stroke-opacity:0.9362;stroke-width:1.2512;stroke-linejoin:miter;stroke-linecap:butt;text-anchor:start;writing-mode:lr;stroke-dasharray:none;"
   x="46.8007016"
   y="108.779185"
   id="text680"
   sodipodi:linespacing="100%"
   xml:space="preserve"
   transform="matrix(4.854878,2.628541,0.814357,5.926362,0,0)"><tspan
   x="46.8007011"
   y="108.779182"
   sodipodi:role="line"
   id="tspan695"
   style="stroke:#000000;stroke-opacity:0.9362;fill:#a62d27;fill-opacity:0.8936;stroke-width:1.2512;stroke-dasharray:none;">Ž</tspan></text></svg>
