<?xml version="1.0" encoding="UTF-8" standalone="no"?>
<!DOCTYPE svg PUBLIC "-//W3C//DTD SVG 20010904//EN"
"http://www.w3.org/TR/2001/REC-SVG-20010904/DTD/svg10.dtd">
<!-- Created with Sodipodi ("http://www.sodipodi.com/") -->
<svg
   xmlns="http://www.w3.org/2000/svg"
   xmlns:sodipodi="http://sodipodi.sourceforge.net/DTD/sodipodi-0.dtd"
   xmlns:xlink="http://www.w3.org/1999/xlink"
   id="svg602"
   sodipodi:version="0.34"
   width="620pt"
   height="620pt"
   xml:space="preserve"
   sodipodi:docname="icon.svg"><defs
   id="defs604"><linearGradient
   id="linearGradient612"><stop
   style="stop-color:#d9bf3a;stop-opacity:1;"
   offset="0"
   id="stop613" /><stop
   style="stop-color:#cd8f17;stop-opacity:1;"
   offset="1"
   id="stop614" /></linearGradient><linearGradient
   xlink:href="#linearGradient612"
   id="linearGradient615" /><radialGradient
   xlink:href="#linearGradient612"
   id="radialGradient616"
   cx="0.49999997"
   cy="0.5"
   r="0.5"
   fx="0.49999997"
   fy="0.5" /><linearGradient
   xlink:href="#linearGradient612"
   id="linearGradient701"
   x1="1.02130067"
   y1="-1.46422498e-2"
   x2="0.23985964"
   y2="0.89622885" /><radialGradient
   xlink:href="#linearGradient612"
   id="radialGradient702" /><linearGradient
   xlink:href="#linearGradient612"
   id="linearGradient641" /></defs><sodipodi:namedview
   id="base" /><rect
   style="font-size:12;fill:#b38472;fill-rule:evenodd;stroke:#000000;stroke-width:25.50389;stroke-opacity:0.844;"
   id="rect609"
   width="456.696865"
   height="481.926953"
   x="209.84305"
   y="-10.0927614"
   ry="7.56953364"
   transform="matrix(0.979807,0.199944,-2.246588e-3,0.999997,0,0)" /><rect
   style="font-size:12;fill:#793d38;fill-rule:evenodd;stroke:#000000;stroke-width:24.41845;stroke-opacity:0.844;"
   id="rect617"
   width="76.0654558"
   height="462.822094"
   x="139.098841"
   y="126.222085"
   transform="matrix(0.91623,-0.400653,8.670559e-3,0.999962,0,0)" /><rect
   style="font-size:12;fill:#eeead4;fill-opacity:0.9645;fill-rule:evenodd;stroke:#000000;stroke-width:1.052362;"
   id="rect645"
   width="441.723867"
   height="467.096771"
   x="218.535708"
   y="-8.11304759"
   transform="matrix(0.977633,0.21032,0,1,0,0)" /><rect
   style="font-size:12;fill:#eeead4;fill-opacity:0.9645;fill-rule:evenodd;stroke:#000000;stroke-width:1.131114;stroke-dashoffset:0;"
   id="rect646"
   width="442.801555"
   height="467.096771"
   x="215.216281"
   y="-6.61003148"
   transform="matrix(0.975251,0.221101,0,1,0,0)" /><rect
   style="font-size:12;fill:#eeead4;fill-opacity:0.9647;stroke:#000000;stroke-width:1.126139;"
   id="rect647"
   width="443.93437"
   height="467.096771"
   x="209.190107"
   y="-5.01573276"
   transform="matrix(0.972764,0.231799,0,1,0,0)" /><rect
   style="font-size:12;fill:#eeead4;fill-opacity:0.9647;stroke:#000000;stroke-width:1.127641;"
   id="rect648"
   width="445.120178"
   height="467.096771"
   x="203.154503"
   y="-3.27325864"
   transform="matrix(0.970173,0.242415,0,1,0,0)" /><rect
   style="font-size:12;fill:#eeead4;fill-opacity:0.9647;stroke:#000000;stroke-width:1.134379;"
   id="rect649"
   width="446.605591"
   height="471.123505"
   x="197.216089"
   y="-1.81257098"
   transform="matrix(0.966945,0.254984,0,1,0,0)" /><rect
   style="font-size:12;fill:#eeead4;fill-opacity:0.9647;stroke:#000000;stroke-width:1.137744;"
   id="rect650"
   width="449.259569"
   height="471.123505"
   x="191.732426"
   y="-1.89334483"
   transform="matrix(0.961233,0.275736,0,1,0,0)" /><rect
   style="font-size:12;fill:#eeead4;fill-opacity:0.9647;stroke:#000000;stroke-width:1.135642;"
   id="rect651"
   width="447.599916"
   height="471.123505"
   x="182.428831"
   y="0.94757522"
   transform="matrix(0.957651,0.287931,0,1,0,0)" /><rect
   style="font-size:12;fill:#eeead4;fill-opacity:0.9647;stroke:#000000;stroke-width:1.128742;"
   id="rect652"
   width="442.178218"
   height="471.123505"
   x="180.348548"
   y="-8.82655898"
   transform="matrix(0.93322,0.359305,0,1,0,0)" /><rect
   style="font-size:12;fill:#eeead4;fill-opacity:0.9647;stroke:#000000;stroke-width:1.128744;"
   id="rect653"
   width="442.179652"
   height="471.123505"
   x="170.066369"
   y="-2.63205515"
   transform="matrix(0.93322,0.359305,0,1,0,0)" /><rect
   style="font-size:12;fill:#eeead4;fill-opacity:0.9647;stroke:#000000;stroke-width:1.12078;"
   id="rect654"
   width="435.959185"
   height="471.123505"
   x="167.45216"
   y="-3.31172776"
   transform="matrix(0.921925,0.387368,0,1,0,0)" /><rect
   style="font-size:12;fill:#eeead4;fill-opacity:0.9647;stroke:#000000;stroke-width:1.116841;"
   id="rect655"
   width="432.900697"
   height="471.123505"
   x="163.194515"
   y="-9.61422652"
   transform="matrix(0.894106,0.447855,0,1,0,0)" /><rect
   style="font-size:12;fill:#eeead4;fill-opacity:0.9647;stroke:#000000;stroke-width:1.116841;"
   id="rect656"
   width="432.900514"
   height="471.123505"
   x="156.038953"
   y="-3.9096825"
   transform="matrix(0.894106,0.447855,0,1,0,0)" /><rect
   style="font-size:12;fill:#eeead4;fill-opacity:0.9647;stroke:#000000;stroke-width:1.116841;"
   id="rect657"
   width="432.900331"
   height="471.123505"
   x="152.461119"
   y="-2.30743337"
   transform="matrix(0.894106,0.447855,0,1,0,0)" /><rect
   style="font-size:12;fill:#eeead4;fill-opacity:0.9647;stroke:#000000;stroke-width:1.116841;"
   id="rect658"
   width="432.899965"
   height="471.123505"
   x="145.30542"
   y="3.39708013"
   transform="matrix(0.894106,0.447855,0,1,0,0)" /><rect
   style="font-size:12;fill:#f1d467;fill-opacity:0.979;fill-rule:evenodd;stroke:#000000;stroke-width:26.672;stroke-opacity:0.7529;stroke-dasharray:none;"
   id="rect610"
   width="430.432385"
   height="472.757653"
   x="142.981412"
   y="0.48143289"
   ry="7.42551411"
   transform="matrix(0.878707,0.477361,3.146383e-4,1,0,0)" /><text
   style="fill:#792215;stroke:#000000;font-family:Bitstream Charter;font-style:italic;font-weight:bold;font-size:72;fill-opacity:0.7762;stroke-opacity:1;stroke-width:1pt;stroke-linejoin:miter;stroke-linecap:butt;text-anchor:start;writing-mode:lr;"
   x="36.5824654"
   y="56.1371161"
   id="text642"
   sodipodi:linespacing="100%"
   xml:space="preserve"
   transform="matrix(4.16762,2.141744,0.232119,6.370165,0,0)"><tspan
   x="36.5824661"
   y="56.1371155"
   sodipodi:role="line"
   id="tspan651"
   style="stroke:#000000;stroke-opacity:1;fill:#792215;fill-opacity:0.7762;">A</tspan></text><text
   style="fill:#a62d27;stroke:#000000;font-family:Bitstream Charter;font-style:italic;font-weight:bold;font-size:64;fill-opacity:0.8936;stroke-opacity:0.9362;stroke-width:1.2512;stroke-linejoin:miter;stroke-linecap:butt;text-anchor:start;writing-mode:lr;stroke-dasharray:none;"
   x="55.8716129"
   y="79.6330363"
   id="text680"
   sodipodi:linespacing="100%"
   xml:space="preserve"
   transform="matrix(4.854878,2.628541,0.814357,5.926362,0,0)"><tspan
   x="55.8716125"
   y="79.6330338"
   sodipodi:role="line"
   id="tspan695"
   style="stroke:#000000;stroke-opacity:0.9362;fill:#a62d27;fill-opacity:0.8936;stroke-width:1.2512;stroke-dasharray:none;">Ž</tspan></text></svg>
