<?xml version="1.0" encoding="UTF-8" standalone="no"?>
<!DOCTYPE svg PUBLIC "-//W3C//DTD SVG 20010904//EN"
"http://www.w3.org/TR/2001/REC-SVG-20010904/DTD/svg10.dtd">
<!-- Created with Sodipodi ("http://www.sodipodi.com/") -->
<svg
   xmlns="http://www.w3.org/2000/svg"
   xmlns:sodipodi="http://sodipodi.sourceforge.net/DTD/sodipodi-0.dtd"
   xmlns:xlink="http://www.w3.org/1999/xlink"
   id="svg602"
   sodipodi:version="0.34"
   width="620pt"
   height="620pt"
   xml:space="preserve"
   sodipodi:docname="icon-rune.svg"><defs
   id="defs604"><linearGradient
   id="linearGradient612"><stop
   style="stop-color:#f8c712;stop-opacity:1;"
   offset="0"
   id="stop613" /><stop
   style="stop-color:#da5a17;stop-opacity:0.8549;"
   offset="1"
   id="stop614" /></linearGradient><linearGradient
   xlink:href="#linearGradient612"
   id="linearGradient615"
   x1="0.14468953"
   y1="0.27636316"
   x2="0.88160586"
   y2="0.80116427"
   gradientUnits="objectBoundingBox"
   spreadMethod="pad" /><radialGradient
   xlink:href="#linearGradient612"
   id="radialGradient616"
   cx="0.49999997"
   cy="0.5"
   r="0.5"
   fx="0.49999997"
   fy="0.5" /><linearGradient
   xlink:href="#linearGradient612"
   id="linearGradient701"
   x1="1.02130067"
   y1="-1.46422498e-2"
   x2="0.23985964"
   y2="0.89622885" /><radialGradient
   xlink:href="#linearGradient612"
   id="radialGradient702" /><linearGradient
   xlink:href="#linearGradient612"
   id="linearGradient641" /></defs><sodipodi:namedview
   id="base" /><rect
   style="font-size:12;fill:#b38472;fill-rule:evenodd;stroke:#000000;stroke-width:25.9628;stroke-opacity:0.844;"
   id="rect609"
   width="473.280349"
   height="481.926815"
   x="212.62529"
   y="-9.15940929"
   ry="7.56953184"
   transform="matrix(0.981211,0.192938,-2.331502e-3,0.999997,0,0)" /><rect
   style="font-size:12;fill:#793d38;fill-rule:evenodd;stroke:#000000;stroke-width:24.80397;stroke-opacity:0.844;"
   id="rect617"
   width="78.4860726"
   height="462.82322"
   x="138.391663"
   y="124.228913"
   transform="matrix(0.921535,-0.388296,8.998255e-3,0.99996,0,0)" /><rect
   style="font-size:12;fill:#eeead4;fill-opacity:0.9645;fill-rule:evenodd;stroke:#000000;stroke-width:1.071217;"
   id="rect645"
   width="457.69411"
   height="467.096771"
   x="221.586944"
   y="-7.12863068"
   transform="matrix(0.979183,0.202981,0,1,0,0)" /><rect
   style="font-size:12;fill:#eeead4;fill-opacity:0.9645;fill-rule:evenodd;stroke:#000000;stroke-width:2.5293;stroke-dashoffset:0;stroke-dasharray:none;"
   id="rect646"
   width="458.734092"
   height="467.096771"
   x="218.099199"
   y="-5.57262895"
   transform="matrix(0.97696,0.213422,0,1,0,0)" /><rect
   style="font-size:12;fill:#eeead4;fill-opacity:0.9647;stroke:#000000;stroke-width:2.5323;stroke-dasharray:none;"
   id="rect647"
   width="459.827743"
   height="467.096771"
   x="211.806974"
   y="-3.92535294"
   transform="matrix(0.974638,0.223787,0,1,0,0)" /><rect
   style="font-size:12;fill:#eeead4;fill-opacity:0.9647;stroke:#000000;stroke-width:2.5355;stroke-dasharray:none;"
   id="rect648"
   width="460.97274"
   height="467.096771"
   x="205.505157"
   y="-2.12989709"
   transform="matrix(0.972218,0.234078,0,1,0,0)" /><rect
   style="font-size:12;fill:#eeead4;fill-opacity:0.9647;stroke:#000000;stroke-width:2.5394;"
   id="rect649"
   width="462.406932"
   height="471.123505"
   x="199.294061"
   y="-0.60590802"
   transform="matrix(0.969201,0.246271,0,1,0,0)" /><rect
   style="font-size:12;fill:#eeead4;fill-opacity:0.9647;stroke:#000000;stroke-width:2.5464;stroke-dasharray:none;"
   id="rect650"
   width="464.970677"
   height="471.123505"
   x="193.510618"
   y="-0.58072954"
   transform="matrix(0.963857,0.266419,0,1,0,0)" /><rect
   style="font-size:12;fill:#eeead4;fill-opacity:0.9647;stroke:#000000;stroke-width:2.5509;stroke-dasharray:none;"
   id="rect651"
   width="463.138717"
   height="471.123505"
   x="183.817899"
   y="2.32337475"
   transform="matrix(0.960503,0.278271,0,1,0,0)" /><rect
   style="font-size:12;fill:#eeead4;fill-opacity:0.9647;stroke:#000000;stroke-width:2.5819;stroke-dasharray:none;"
   id="rect652"
   width="456.76776"
   height="471.123505"
   x="181.23398"
   y="-7.064776"
   transform="matrix(0.937558,0.347829,0,1,0,0)" /><rect
   style="font-size:12;fill:#eeead4;fill-opacity:0.9647;stroke:#000000;stroke-width:2.5819;stroke-dasharray:none;"
   id="rect653"
   width="456.769242"
   height="471.123505"
   x="170.612558"
   y="-0.87027179"
   transform="matrix(0.937558,0.347829,0,1,0,0)" /><rect
   style="font-size:12;fill:#eeead4;fill-opacity:0.9647;stroke:#000000;stroke-width:2.5967;stroke-dasharray:none;"
   id="rect654"
   width="450.002875"
   height="471.123505"
   x="167.723077"
   y="-1.38907337"
   transform="matrix(0.926912,0.375279,0,1,0,0)" /><rect
   style="font-size:12;fill:#eeead4;fill-opacity:0.9647;stroke:#000000;stroke-width:2.6344;stroke-dasharray:none;"
   id="rect655"
   width="446.029095"
   height="471.123505"
   x="162.870614"
   y="-7.32218475"
   transform="matrix(0.900588,0.434673,0,1,0,0)" /><rect
   style="font-size:12;fill:#eeead4;fill-opacity:0.9647;stroke:#000000;stroke-width:1.133649;"
   id="rect656"
   width="446.028906"
   height="471.123505"
   x="155.498047"
   y="-1.61764092"
   transform="matrix(0.900588,0.434673,0,1,0,0)" /><rect
   style="font-size:12;fill:#eeead4;fill-opacity:0.9647;stroke:#000000;stroke-width:2.6344;stroke-dasharray:none;"
   id="rect657"
   width="446.028718"
   height="471.123505"
   x="151.811709"
   y="-1.53917835e-2"
   transform="matrix(0.900588,0.434673,0,1,0,0)" /><rect
   style="font-size:12;fill:#eeead4;fill-opacity:0.9647;stroke:#000000;stroke-width:2.6344;stroke-dasharray:none;"
   id="rect658"
   width="446.02834"
   height="471.123505"
   x="144.439001"
   y="5.68912176"
   transform="matrix(0.900588,0.434673,0,1,0,0)" /><rect
   style="font-size:12;fill:url(#linearGradient615);fill-opacity:0.979;fill-rule:nonzero;stroke:#000000;stroke-width:27.06;stroke-opacity:0.7529;"
   id="rect610"
   width="443.046404"
   height="472.757716"
   x="141.810534"
   y="2.96773419"
   ry="7.42551509"
   transform="matrix(0.885956,0.46377,3.265306e-4,1,0,0)" /><rect
   style="font-size:12;fill:#000000;fill-rule:evenodd;stroke-width:1;fill-opacity:1;"
   id="rect640"
   width="33.2059926"
   height="143.623337"
   x="-118.945463"
   y="570.372278"
   transform="matrix(0.838064,-0.545572,0.632556,0.774515,0,0)" /><rect
   style="font-size:12;fill:#000000;fill-rule:evenodd;stroke-width:1;fill-opacity:1;"
   id="rect641"
   width="32.358461"
   height="135.507698"
   x="-65.4350654"
   y="417.903269"
   transform="matrix(0.818053,-0.575143,0.718102,0.695938,0,0)" /><rect
   style="font-size:12;fill:#000000;fill-rule:evenodd;stroke-width:1;fill-opacity:1;"
   id="rect642"
   width="39.0062258"
   height="147.004549"
   x="-376.006314"
   y="103.29685"
   transform="matrix(-0.384565,-0.923098,0.985448,-0.169976,0,0)" /><rect
   style="font-size:12;fill:#000000;fill-rule:evenodd;stroke-width:1;fill-opacity:1;"
   id="rect643"
   width="34.2156787"
   height="139.479973"
   x="-595.165262"
   y="122.596594"
   transform="matrix(-0.265571,-0.964091,0.841998,-0.539481,0,0)" /></svg>
