/* XPM */
static char * add_xpm[] = {
"24 24 24 1",
" 	c None",
".	c #000000",
"+	c #E0E6CE",
"@	c #CFD8B6",
"#	c #AEB884",
"$	c #89A67E",
"%	c #778B5F",
"&	c #72865A",
"*	c #C5D0AC",
"=	c #B4C59D",
"-	c #ACBD93",
";	c #9BB187",
">	c #BCCAA4",
",	c #CED7B5",
"'	c #CDD6B4",
")	c #B1BC84",
"!	c #D8DEC2",
"~	c #788F63",
"{	c #8FA472",
"]	c #7C9B6F",
"^	c #9CB38B",
"/	c #BAC8A2",
"(	c #C0CA9C",
"_	c #65784A",
"                        ",
"                        ",
"                        ",
"          ...           ",
"         .+@#.          ",
"         .@$%.          ",
"         .@$%.          ",
"         .@$%.          ",
"         .@$%.          ",
"    ......@$&......     ",
"   .*=====-$;>,''').    ",
"   .!$$$$$$$$$$$$$~.    ",
"   .{%%%%%$$]%%%%%%.    ",
"    ......^$%......     ",
"         ./$%.          ",
"         .'$%.          ",
"         .'$%.          ",
"         .'$%.          ",
"         .(%_.          ",
"          ...           ",
"                        ",
"                        ",
"                        ",
"                        "};
