/* XPM */
static char * clear_xpm[] = {
"16 16 57 1",
" 	c None",
".	c #000000",
"+	c #A38972",
"@	c #5E5044",
"#	c #A9917D",
"$	c #B8A18C",
"%	c #231B15",
"&	c #4D3F33",
"*	c #BFAA97",
"=	c #62503F",
"-	c #6B5745",
";	c #9A826D",
">	c #241C15",
",	c #69523E",
"'	c #755C45",
")	c #0F110F",
"!	c #232622",
"~	c #1B1510",
"{	c #775D47",
"]	c #221A14",
"^	c #565C52",
"/	c #828B7C",
"(	c #879181",
"_	c #1E1711",
":	c #928E79",
"<	c #ACB8A4",
"[	c #99A492",
"}	c #5A594A",
"|	c #605946",
"1	c #D1C096",
"2	c #AC9E7C",
"3	c #26231B",
"4	c #363933",
"5	c #A8B4A1",
"6	c #EBD8A9",
"7	c #BDAE88",
"8	c #A19F93",
"9	c #6C6754",
"0	c #222322",
"a	c #868F81",
"b	c #656452",
"c	c #807E68",
"d	c #444032",
"e	c #BEB08A",
"f	c #E0D0A4",
"g	c #B0A786",
"h	c #838470",
"i	c #939278",
"j	c #434336",
"k	c #4A4A3E",
"l	c #1D1C16",
"m	c #3B382D",
"n	c #817D65",
"o	c #9A9A7F",
"p	c #616252",
"q	c #2A2921",
"r	c #26251E",
"                ",
"  .             ",
" .+@            ",
" .#$%           ",
"  &*=           ",
"   -;>          ",
"    ,'  )!      ",
"    ~{]^/(.     ",
"     _:<[}|     ",
"     ^<<}123    ",
"    45[}6789.   ",
"    0a}116bcd.. ",
"     .efghijkl. ",
"      mnopqr    ",
"        ..      ",
"                "};
