/* XPM */
static char * clear3_xpm[] = {
"16 16 40 1",
" 	c None",
".	c #402729",
"+	c #321315",
"@	c #1B0A0C",
"#	c #1D0B0D",
"$	c #A34951",
"%	c #8F373E",
"&	c #000000",
"*	c #9A434A",
"=	c #40181C",
"-	c #CD4C58",
";	c #3D171A",
">	c #271314",
",	c #A64B52",
"'	c #983841",
")	c #290F11",
"!	c #6F292F",
"~	c #9C3B43",
"{	c #A34049",
"]	c #C34C56",
"^	c #270E11",
"/	c #743037",
"(	c #CC4B57",
"_	c #B2434C",
":	c #311215",
"<	c #693236",
"[	c #D2535F",
"}	c #C64954",
"|	c #7F2F37",
"1	c #773A3F",
"2	c #C64F5A",
"3	c #4B1B20",
"4	c #BD4752",
"5	c #381518",
"6	c #BE505A",
"7	c #5B2227",
"8	c #6F2A30",
"9	c #963840",
"0	c #2E1113",
"a	c #843239",
"                ",
"                ",
"                ",
"                ",
"     .+   @#    ",
"     $%& &*=    ",
"     &-;>,')    ",
"      !~{]^     ",
"      /(_:      ",
"     <[}|&      ",
"    123&45      ",
"   &67&&89&     ",
"    &   0a&     ",
"                ",
"                ",
"                "};
