/* XPM */
static char * group_xpm[] = {
"14 14 104 2",
"  	c None",
". 	c #3C3C3C",
"+ 	c #C8C8C8",
"@ 	c #D4D4D4",
"# 	c #D5D5D5",
"$ 	c #D3D3D3",
"% 	c #A7A7A7",
"& 	c #5A5A5A",
"* 	c #4C4C4C",
"= 	c #FEFEFE",
"- 	c #FFFFFF",
"; 	c #D2D2D2",
"> 	c #DADADA",
", 	c #484848",
"' 	c #FCFCFC",
") 	c #FCFCFB",
"! 	c #FBFBFA",
"~ 	c #C8C8C7",
"{ 	c #F7F7F7",
"] 	c #CCCCCC",
"^ 	c #4E4E4E",
"/ 	c #FAFAFA",
"( 	c #F9F9F8",
"_ 	c #F8F8F7",
": 	c #F8F7F6",
"< 	c #AEAEAD",
"[ 	c #5C5B5B",
"} 	c #4C4C4B",
"| 	c #2F2F2E",
"1 	c #0E0D0C",
"2 	c #7D88A6",
"3 	c #334676",
"4 	c #1B3066",
"5 	c #4B5B85",
"6 	c #D7DADE",
"7 	c #DEDDDB",
"8 	c #CBCAC8",
"9 	c #9A9894",
"0 	c #262522",
"a 	c #FAF9F8",
"b 	c #949DB5",
"c 	c #DBDDE1",
"d 	c #F2F2F0",
"e 	c #929BB2",
"f 	c #4A5A83",
"g 	c #EBEAE8",
"h 	c #E2E1DF",
"i 	c #B9B7B2",
"j 	c #2A2825",
"k 	c #627094",
"l 	c #627093",
"m 	c #F0F0EE",
"n 	c #C2C5D0",
"o 	c #A9AFC0",
"p 	c #A5ACBC",
"q 	c #E6E5E2",
"r 	c #E3E2DF",
"s 	c #CAC7C2",
"t 	c #2E2C29",
"u 	c #F5F5F4",
"v 	c #616F93",
"w 	c #616F92",
"x 	c #EDECEA",
"y 	c #8F98AF",
"z 	c #495983",
"A 	c #E4E3E0",
"B 	c #E1E0DC",
"C 	c #CBC8C2",
"D 	c #2F2E2A",
"E 	c #F2F1F0",
"F 	c #BCC0CA",
"G 	c #A4AABA",
"H 	c #E8E7E4",
"I 	c #8C95AB",
"J 	c #E2E0DD",
"K 	c #DEDDD9",
"L 	c #C8C6BF",
"M 	c #2F2D2A",
"N 	c #E5E4E0",
"O 	c #8B94A9",
"P 	c #314473",
"Q 	c #747F9B",
"R 	c #5D6A8D",
"S 	c #DBD9D5",
"T 	c #C5C2BB",
"U 	c #2E2D29",
"V 	c #454545",
"W 	c #E1DFDC",
"X 	c #E0DFDB",
"Y 	c #DFDDD9",
"Z 	c #DCDAD6",
"` 	c #D8D6D2",
" .	c #C3C0B9",
"..	c #2E2E2C",
"+.	c #94928B",
"@.	c #97938C",
"#.	c #97938B",
"$.	c #96938B",
"%.	c #96928A",
"&.	c #959189",
"*.	c #949088",
"=.	c #918E86",
"-.	c #817D75",
";.	c #1F1E1B",
"                            ",
"  . + @ @ @ # $ % &         ",
"  * = - - - - = ; > ,       ",
"  * - - = ' ) ! ~ { ] ^     ",
"  * = ' / ( _ : < [ } | 1   ",
"  * ) ( 2 3 4 5 6 7 8 9 0   ",
"  * a b 4 c d e f g h i j   ",
"  * : k l m n o p q r s t   ",
"  * u v w x y z 4 A B C D   ",
"  * E F 4 G H I 4 J K L M   ",
"  * x N O P 4 Q R K S T U   ",
"  V h W X X X X Y Z `  .t   ",
"  ..+.@.#.$.%.%.&.*.=.-.;.  ",
"                            "};
