/* XPM */
static char * hide_xpm[] = {
"18 16 33 1",
" 	c None",
".	c #000000",
"+	c #C6DAC6",
"@	c #A8C7A8",
"#	c #CDDECB",
"$	c #B1C9B0",
"%	c #B4CBB2",
"&	c #B5CEB5",
"*	c #B9CEB7",
"=	c #BAD1BA",
"-	c #BBD0B9",
";	c #B2C9B0",
">	c #7EAB78",
",	c #AAC7A8",
"'	c #B3CAB1",
")	c #B0C9B0",
"!	c #AEC7AC",
"~	c #AAC5A8",
"{	c #A9C4A7",
"]	c #698267",
"^	c #83A27E",
"/	c #2D2D2D",
"(	c #CFDFCC",
"_	c #ADC8AB",
":	c #B0C7AE",
"<	c #ADC6AB",
"[	c #678C63",
"}	c #5B7950",
"|	c #3C5235",
"1	c #4A6342",
"2	c #3B5035",
"3	c #415639",
"4	c #4A6241",
"                  ",
"...      .        ",
".+.     ..        ",
".@.    .#.        ",
".@.   .#$.......  ",
".@.  .#%&*=*-;>.  ",
".@. .#,')!~~!{].  ",
".^./(_:<<,!!!_[.  ",
".}. .|}}}}}}}}1.  ",
".}.  .|}}222223.  ",
".}.   .|}.......  ",
".}.    .|.        ",
".4.     ..        ",
"...      .        ",
"                  ",
"                  "};
