/* XPM */
static char * icon_xpm[] = {
"48 48 643 2",
"  	c None",
". 	c #002B40",
"+ 	c #001C2D",
"@ 	c #001727",
"# 	c #002B41",
"$ 	c #005480",
"% 	c #1D5D81",
"& 	c #726F6E",
"* 	c #B6B5B4",
"= 	c #8A8A8A",
"- 	c #8B8B8B",
"; 	c #C0BEBD",
"> 	c #7F7B79",
", 	c #245D7D",
"' 	c #005787",
") 	c #005281",
"! 	c #567B90",
"~ 	c #AAA29D",
"{ 	c #D4D4D4",
"] 	c #F2F2F2",
"^ 	c #CDCDCD",
"/ 	c #898989",
"( 	c #3B3B3B",
"_ 	c #D7D7D7",
": 	c #FFFFFF",
"< 	c #E8E9E8",
"[ 	c #BAB2AD",
"} 	c #668395",
"| 	c #005485",
"1 	c #005586",
"2 	c #647D8A",
"3 	c #A8A09C",
"4 	c #CECFCF",
"5 	c #E0E0E0",
"6 	c #E5E5E5",
"7 	c #ECECEC",
"8 	c #D6D6D6",
"9 	c #979797",
"0 	c #4C4C4C",
"a 	c #494949",
"b 	c #999999",
"c 	c #E1E1E1",
"d 	c #F7F7F7",
"e 	c #F1F1F1",
"f 	c #E3E3E4",
"g 	c #BAB2AE",
"h 	c #748794",
"i 	c #005587",
"j 	c #002437",
"k 	c #005889",
"l 	c #70828C",
"m 	c #AEA7A3",
"n 	c #DBDBDB",
"o 	c #D8D8D8",
"p 	c #DADADA",
"q 	c #E4E4E4",
"r 	c #EDEDED",
"s 	c #A2A2A2",
"t 	c #4F4F4F",
"u 	c #4D4D4D",
"v 	c #A6A6A6",
"w 	c #E8E8E8",
"x 	c #F8F8F8",
"y 	c #E9E9E9",
"z 	c #EBEBEB",
"A 	c #EAEAEA",
"B 	c #BEB8B3",
"C 	c #829097",
"D 	c #035A8A",
"E 	c #00283D",
"F 	c #002B42",
"G 	c #065B8C",
"H 	c #7F8B91",
"I 	c #B2ADA9",
"J 	c #DBDBDC",
"K 	c #D9D9D9",
"L 	c #E2E2E2",
"M 	c #DFDFDF",
"N 	c #A7A7A7",
"O 	c #585858",
"P 	c #595959",
"Q 	c #ADADAD",
"R 	c #F5F5F5",
"S 	c #EEEEEE",
"T 	c #C2BCB9",
"U 	c #939A9F",
"V 	c #0F5F8E",
"W 	c #002E48",
"X 	c #00314C",
"Y 	c #11628F",
"Z 	c #8D9296",
"` 	c #B5AFAD",
" .	c #DDDEDE",
"..	c #B2B2B2",
"+.	c #646464",
"@.	c #636363",
"#.	c #B5B5B5",
"$.	c #F0F0F0",
"%.	c #F3F3F3",
"&.	c #C5C0BE",
"*.	c #9FA0A1",
"=.	c #1B6491",
"-.	c #003452",
";.	c #003657",
">.	c #1E658F",
",.	c #969798",
"'.	c #B8B3B2",
").	c #DEDFDF",
"!.	c #BBBBBB",
"~.	c #6F6F6F",
"{.	c #C4C4C4",
"].	c #FDFDFD",
"^.	c #F9F9F9",
"/.	c #FBFBFB",
"(.	c #F4F4F4",
"_.	c #B9B9B9",
":.	c #8D8D8D",
"<.	c #DDDDDD",
"[.	c #EFEFEF",
"}.	c #C8C5C3",
"|.	c #A5A3A2",
"1.	c #296992",
"2.	c #00395D",
"3.	c #003D62",
"4.	c #2B6A91",
"5.	c #9B9997",
"6.	c #BBB8B6",
"7.	c #DFDFE0",
"8.	c #E7E7E7",
"9.	c #C3C3C3",
"0.	c #606060",
"a.	c #5B5B5B",
"b.	c #CBCBCB",
"c.	c #FAFAFA",
"d.	c #A4A4A4",
"e.	c #E6E6E6",
"f.	c #262626",
"g.	c #CCC9C8",
"h.	c #AAA7A3",
"i.	c #357193",
"j.	c #003F67",
"k.	c #00446D",
"l.	c #367092",
"m.	c #A19C98",
"n.	c #BEBBBB",
"o.	c #E3E3E3",
"p.	c #B8B8B8",
"q.	c #191919",
"r.	c #474747",
"s.	c #808080",
"t.	c #0C0C0C",
"u.	c #D0CECE",
"v.	c #B0AAA7",
"w.	c #437897",
"x.	c #004570",
"y.	c #004874",
"z.	c #447692",
"A.	c #A69F9B",
"B.	c #C3C2C1",
"C.	c #DCDCDC",
"D.	c #D0D0D0",
"E.	c #B4B4B4",
"F.	c #B3B3B3",
"G.	c #888888",
"H.	c #040404",
"I.	c #000000",
"J.	c #FEFEFE",
"K.	c #D6D5D5",
"L.	c #B5ADA9",
"M.	c #537F99",
"N.	c #004977",
"O.	c #004D7D",
"P.	c #537C93",
"Q.	c #AAA19D",
"R.	c #C8C7C7",
"S.	c #DEDEDE",
"T.	c #454545",
"U.	c #BCBCBC",
"V.	c #B1B1B1",
"W.	c #909090",
"X.	c #747474",
"Y.	c #A0A0A0",
"Z.	c #A3A3A3",
"`.	c #F2F1F1",
" +	c #B7B0AC",
".+	c #628699",
"++	c #005080",
"@+	c #005486",
"#+	c #618294",
"$+	c #ABA49F",
"%+	c #CCCCCC",
"&+	c #929292",
"*+	c #818181",
"=+	c #C8C8C8",
"-+	c #959595",
";+	c #545454",
">+	c #272727",
",+	c #0A0A0A",
"'+	c #414141",
")+	c #F6F6F6",
"!+	c #B9B2AE",
"~+	c #728E9C",
"{+	c #005789",
"]+	c #001B2B",
"^+	c #002031",
"/+	c #03598B",
"(+	c #708695",
"_+	c #ABA4A1",
":+	c #D1D1D1",
"<+	c #3E3E3E",
"[+	c #141414",
"}+	c #131313",
"|+	c #5E5E5E",
"1+	c #D2D2D2",
"2+	c #6B6B6B",
"3+	c #3A3A3A",
"4+	c #0E0E0E",
"5+	c #0B0B0B",
"6+	c #B8B1AD",
"7+	c #82929B",
"8+	c #085C8D",
"9+	c #00253A",
"0+	c #002840",
"a+	c #0B5D8F",
"b+	c #7E8991",
"c+	c #AAA4A1",
"d+	c #0D0D0D",
"e+	c #5F5F5F",
"f+	c #444444",
"g+	c #3D3D3D",
"h+	c #3C3C3C",
"i+	c #353535",
"j+	c #080808",
"k+	c #B0B0B0",
"l+	c #E9EAEA",
"m+	c #B8B4B0",
"n+	c #8D9498",
"o+	c #116090",
"p+	c #002D48",
"q+	c #00314D",
"r+	c #126190",
"s+	c #878B8F",
"t+	c #ADA8A5",
"u+	c #D9D9DA",
"v+	c #525252",
"w+	c #AEAEAE",
"x+	c #C7C7C7",
"y+	c #4E4E4E",
"z+	c #535353",
"A+	c #8E8E8E",
"B+	c #BFBFBF",
"C+	c #BEBEBE",
"D+	c #0F0F0F",
"E+	c #ECEDEE",
"F+	c #BDBAB7",
"G+	c #969899",
"H+	c #176391",
"I+	c #003555",
"J+	c #00395A",
"K+	c #186590",
"L+	c #908F91",
"M+	c #B3AFAE",
"N+	c #DCDDDD",
"O+	c #6E6E6E",
"P+	c #030303",
"Q+	c #AFAFAF",
"R+	c #FCFCFC",
"S+	c #B7B7B7",
"T+	c #C6C3C2",
"U+	c #A2A0A0",
"V+	c #1F6992",
"W+	c #003C60",
"X+	c #003F65",
"Y+	c #236991",
"Z+	c #9D9797",
"`+	c #BAB8B6",
" @	c #DAD9D9",
".@	c #868686",
"+@	c #ABABAB",
"@@	c #010101",
"#@	c #CDCAC9",
"$@	c #AFA9A7",
"%@	c #317094",
"&@	c #00416A",
"*@	c #357093",
"=@	c #A59E9B",
"-@	c #BEBDBC",
";@	c #1A1A1A",
">@	c #242424",
",@	c #CECECE",
"'@	c #090909",
")@	c #F0F1F1",
"!@	c #D0CFCE",
"~@	c #B4ADA9",
"{@	c #437797",
"]@	c #004A79",
"^@	c #437594",
"/@	c #A9A19C",
"(@	c #C3C1C0",
"_@	c #7D7D7D",
":@	c #BABABA",
"<@	c #101010",
"[@	c #D4D3D3",
"}@	c #B8B0AC",
"|@	c #537D98",
"1@	c #004D7C",
"2@	c #004F7F",
"3@	c #537A93",
"4@	c #ACA49F",
"5@	c #C5C6C6",
"6@	c #2B2B2B",
"7@	c #A1A1A1",
"8@	c #232323",
"9@	c #D3D3D3",
"0@	c #3F3F3F",
"a@	c #C5C5C5",
"b@	c #D8D9D9",
"c@	c #BBB2AF",
"d@	c #638499",
"e@	c #005081",
"f@	c #005384",
"g@	c #617F93",
"h@	c #AFA7A2",
"i@	c #CACBCB",
"j@	c #989898",
"k@	c #373737",
"l@	c #676767",
"m@	c #616161",
"n@	c #DDDDDE",
"o@	c #BDB5B0",
"p@	c #718B9A",
"q@	c #002030",
"r@	c #01588B",
"s@	c #6D8593",
"t@	c #AFA8A3",
"u@	c #CFD0D0",
"v@	c #434343",
"w@	c #4B4B4B",
"x@	c #383838",
"y@	c #E0E1E2",
"z@	c #BEB6B2",
"A@	c #7F929D",
"B@	c #00283E",
"C@	c #045B8D",
"D@	c #7B8B94",
"E@	c #B0AAA6",
"F@	c #D2D2D3",
"G@	c #AAAAAA",
"H@	c #060606",
"I@	c #404040",
"J@	c #8F8F8F",
"K@	c #686868",
"L@	c #848484",
"M@	c #9C9C9C",
"N@	c #E5E6E6",
"O@	c #C1BAB6",
"P@	c #8F9AA0",
"Q@	c #075D8D",
"R@	c #002B43",
"S@	c #0A5E8E",
"T@	c #899197",
"U@	c #D5D5D7",
"V@	c #5D5D5D",
"W@	c #8C8C8C",
"X@	c #393939",
"Y@	c #E9E9EA",
"Z@	c #C2BEBA",
"`@	c #9A9FA2",
" #	c #11618E",
".#	c #003350",
"+#	c #003656",
"@#	c #15638F",
"##	c #939698",
"$#	c #B3B0AC",
"%#	c #D8D9DA",
"&#	c #222222",
"*#	c #CACACA",
"=#	c #9E9E9E",
"-#	c #727272",
";#	c #EBEBEC",
">#	c #C1BDBB",
",#	c #1F6791",
"'#	c #003D60",
")#	c #004066",
"!#	c #226790",
"~#	c #979695",
"{#	c #DBDCDC",
"]#	c #787878",
"^#	c #6C6C6C",
"/#	c #C9C9C9",
"(#	c #202020",
"_#	c #282828",
":#	c #9F9F9F",
"<#	c #323232",
"[#	c #C1BEBD",
"}#	c #A5A29F",
"|#	c #2E6C91",
"1#	c #004772",
"2#	c #306A8E",
"3#	c #9C9793",
"4#	c #B4B3B1",
"5#	c #939393",
"6#	c #1B1B1B",
"7#	c #020202",
"8#	c #878787",
"9#	c #C5C3C3",
"0#	c #ACA5A0",
"a#	c #3D7090",
"b#	c #004976",
"c#	c #004B79",
"d#	c #3F6F8C",
"e#	c #A39B96",
"f#	c #BAB9B8",
"g#	c #DFE0E0",
"h#	c #5C5C5C",
"i#	c #050505",
"j#	c #303030",
"k#	c #C6C6C6",
"l#	c #F1F2F2",
"m#	c #CCCCCB",
"n#	c #B4ABA6",
"o#	c #4E7791",
"p#	c #4E758E",
"q#	c #AAA19C",
"r#	c #C1C1C0",
"s#	c #ACACAC",
"t#	c #555555",
"u#	c #181818",
"v#	c #4A4A4A",
"w#	c #7C7C7C",
"x#	c #D3D4D4",
"y#	c #BBB3AD",
"z#	c #5F8297",
"A#	c #005283",
"B#	c #005487",
"C#	c #5D7F92",
"D#	c #B2A9A4",
"E#	c #CACAC9",
"F#	c #C1B9B4",
"G#	c #708B9B",
"H#	c #01588A",
"I#	c #728A97",
"J#	c #F0EFEF",
"K#	c #F8F7F7",
"L#	c #BDB6B1",
"M#	c #8595A0",
"N#	c #02588A",
"O#	c #002438",
"P#	c #00273D",
"Q#	c #075D8E",
"R#	c #7B8890",
"S#	c #99928C",
"T#	c #9A9B9B",
"U#	c #AFAFB0",
"V#	c #B8B8B9",
"W#	c #C4C5C5",
"X#	c #D6D7D6",
"Y#	c #AAABAB",
"Z#	c #A29D99",
"`#	c #8A939A",
" $	c #0B5F90",
".$	c #002D47",
"+$	c #003655",
"@$	c #025988",
"#$	c #5A5D5C",
"$$	c #CFC1B8",
"%$	c #DBD4D0",
"&$	c #C4BFBC",
"*$	c #B4B2B0",
"=$	c #A2A2A1",
"-$	c #9B9B9B",
";$	c #A4A5A5",
">$	c #AEAEAF",
",$	c #BABABB",
"'$	c #B2B1B1",
")$	c #B1B0B0",
"!$	c #CACACB",
"~$	c #BDBEBE",
"{$	c #A8A8A9",
"]$	c #ADADAC",
"^$	c #C1BEBC",
"/$	c #D0CCCA",
"($	c #E8E2DE",
"_$	c #E0D5CC",
":$	c #6B6968",
"<$	c #055684",
"[$	c #003D5E",
"}$	c #004467",
"|$	c #00679C",
"1$	c #23546E",
"2$	c #748C99",
"3$	c #99A7B0",
"4$	c #B3B7BA",
"5$	c #C9C5C2",
"6$	c #D3CCC7",
"7$	c #D6CDC8",
"8$	c #CEC7C3",
"9$	c #C1BCB9",
"0$	c #B2AFAE",
"a$	c #A2A1A1",
"b$	c #A8A8A8",
"c$	c #B0B1B2",
"d$	c #BBBCBC",
"e$	c #B4B3B3",
"f$	c #F5F5F4",
"g$	c #CCCDCD",
"h$	c #C0C1C1",
"i$	c #B7B8B8",
"j$	c #ACACAD",
"k$	c #BCBABA",
"l$	c #CEC9C6",
"m$	c #E2DDD8",
"n$	c #E6DEDA",
"o$	c #DAD5D3",
"p$	c #C3C6C8",
"q$	c #A8B5BD",
"r$	c #8498A7",
"s$	c #2C5871",
"t$	c #006398",
"u$	c #004C73",
"v$	c #002132",
"w$	c #004362",
"x$	c #004871",
"y$	c #074D79",
"z$	c #16577F",
"A$	c #276182",
"B$	c #44718D",
"C$	c #6E8B9D",
"D$	c #8FA2AC",
"E$	c #AEB5B9",
"F$	c #C4C1C0",
"G$	c #CFC8C4",
"H$	c #D0C8C3",
"I$	c #CAC2BF",
"J$	c #BCB6B3",
"K$	c #A9A6A4",
"L$	c #A7A6A6",
"M$	c #B3B4B4",
"N$	c #B8B9B8",
"O$	c #D1D2D2",
"P$	c #C4C4C5",
"Q$	c #B9BABA",
"R$	c #B5B2B0",
"S$	c #C6C1BE",
"T$	c #D8D1CD",
"U$	c #E0D8D3",
"V$	c #DDD7D3",
"W$	c #D5D2D0",
"X$	c #C0C5C8",
"Y$	c #9FB0B9",
"Z$	c #7B97A7",
"`$	c #517C94",
" %	c #2C6586",
".%	c #1A5981",
"+%	c #0A4E7A",
"@%	c #004971",
"#%	c #00273A",
"$%	c #001B2C",
"%%	c #00243C",
"&%	c #002E4E",
"*%	c #00355B",
"=%	c #003E66",
"-%	c #034A73",
";%	c #0F547C",
">%	c #266083",
",%	c #65889C",
"'%	c #869CA9",
")%	c #A1ACB1",
"!%	c #B7B7B9",
"~%	c #C3BEBB",
"{%	c #C9C1BD",
"]%	c #C5BDB9",
"^%	c #B8B2AE",
"/%	c #A8A5A2",
"(%	c #AFADAD",
"_%	c #868482",
":%	c #858280",
"<%	c #BEBCBB",
"[%	c #B4B0AE",
"}%	c #D1CBC6",
"|%	c #D5CFCB",
"1%	c #D2CDC9",
"2%	c #B1BABF",
"3%	c #96A8B4",
"4%	c #7494A7",
"5%	c #4D7994",
"6%	c #2D6689",
"7%	c #14567F",
"8%	c #054B74",
"9%	c #003E67",
"0%	c #00365C",
"a%	c #003051",
"b%	c #002640",
"c%	c #001C2F",
"d%	c #002034",
"e%	c #002A46",
"f%	c #002E4F",
"g%	c #00385D",
"h%	c #00426A",
"i%	c #0A5079",
"j%	c #1E5B81",
"k%	c #376986",
"l%	c #577E95",
"m%	c #7B95A4",
"n%	c #96A4AD",
"o%	c #AEB1B3",
"p%	c #BCB8B5",
"q%	c #3E4757",
"r%	c #343F51",
"s%	c #C3C0BE",
"t%	c #C0C0C1",
"u%	c #A3B0B6",
"v%	c #88A1B0",
"w%	c #62899F",
"x%	c #3F708C",
"y%	c #256084",
"z%	c #0E537D",
"A%	c #00436D",
"B%	c #003960",
"C%	c #003153",
"D%	c #002A47",
"E%	c #002037",
"F%	c #00223B",
"G%	c #002C4C",
"H%	c #003458",
"I%	c #003E65",
"J%	c #074871",
"K%	c #1B5B81",
"L%	c #2E5871",
"M%	c #092D58",
"N%	c #072D5B",
"O%	c #325A72",
"P%	c #226085",
"Q%	c #0A4D76",
"R%	c #00365D",
"S%	c #002F50",
"T%	c #00243F",
"U%	c #001B2E",
"V%	c #002239",
"W%	c #002036",
"X%	c #001C3C",
"Y%	c #001E40",
"Z%	c #00213A",
"                                                                                                ",
"                                                                                                ",
"                                                                                                ",
"                                                                                                ",
"                                                                                                ",
"                                                                                                ",
"                                                                                                ",
"                                                                                                ",
"        . +                                                                         @ #         ",
"        $ % & * =                                                             - ; > , '         ",
"        ) ! ~ { ] ^ / (                                                   - _ : < [ } |         ",
"        1 2 3 4 5 6 7 8 9 0                                         a b c : d e f g h i         ",
"      j k l m _ n o p q r n s t                                 u v w : x 7 y z A B C D E       ",
"      F G H I J n K K _ o L r M N O                         P Q r : R r A A A z S T U V W       ",
"      X Y Z `  .p K K K K _ o c z L ..+.                @.#.$.: %.A d %.y A A A $.&.*.=.-.      ",
"      ;.>.,.'.).K K K K K K o o K c z 6 !.~.        ~.{.R ].^./.(.$._.:.<.[.A y $.}.|.1.2.      ",
"      3.4.5.6.7.o K K K K K K o o o K <.8.8.9.0.a.b.d c.[.S _ d.{ e.f.P ] S A y e g.h.i.j.      ",
"      k.l.m.n.M o K K K K K K o.o.p K o o n 7 !.!.: r y y x p.q.r.s.t.Q ].7 r y $.u.v.w.x.      ",
"      y.z.A.B.).K K K K K K C.D.o M o K K _ 5 E.F.] w A A S e G.H.I.u $.: J.R y [.K.L.M.N.      ",
"      O.P.Q.R.S.K K K K o o.D.a T.U.o.K K o 5 ..V.e y A A 8.e c.W.X.K d 8 Y.Z.A `.p  +.+++      ",
"      @+#+$+%+C.K K K o K S &+I.I.*+z p K o 5 ..V.e y A z d ].J.S =+-+;+>+,+'+A )+S.!+~+{+]+    ",
"    ^+/+(+_+:+C.K K K o c <.<+[+}+|+q C.K o 5 ..V.e y z z 1+Y.2+3+4+I.5+5+I.O ] ] q 6+7+8+9+    ",
"    0+a+b+c+8 C.K K K o y v d+e+f+g+K M K o 5 ..V.e w (.M h+I.I.}+i+X.Q r.j+k+].z l+m+n+o+p+    ",
"    q+r+s+t+u+n K K K S.o.v+j+w+0.q.x+L o o 5 ..V.e w (.C.y+z+A+B+q : C+D+t %.e A E+F+G+H+I+    ",
"    J+K+L+M+N+p K K K A _.D+<+z O+P+Q+6 _ o 5 ..V.e y z 8.<.S R+c./.(.T.H.S+].y A [.T+U+V+W+    ",
"    X+Y+Z+`+S. @K K n A O+I.&+: .@P+W.w _ o 5 ..V.e y A z %.e r y ].+@@@v+)+S y A $.#@$@%@&@    ",
"    x.*@=@-@7.K K _ o.x+;@>@,@R Y.'@O+w o o 5 ..V.e y A A A A y %.[.f+,+!.^.8.A A )@!@~@{@y.    ",
"    ]@^@/@(@7.K K o A _@I.*+(.r :@<@a c C._ 5 ..V.e y A A A A y : Q @@|+d r A A A )@[@}@|@1@    ",
"    2@3@4@5@).K o L 8 6@j+7@S.S c >+8@9@c _ 5 ..V.e y A A A y %.7 0@t.a@].A A A A e b@c@d@e@    ",
"    f@g@h@i@M K K 7 j@H.I.;@k@l@W.>+[+B+e._ 5 ..V.e y A A A y : Z.I.m@x $.A A A A $.n@o@p@i     ",
"  q@r@s@t@u@S.o c S.v@P+w@x@4+I.P+I.t.v A o M ..V.e y A A y %.r ( D+=+R+y A A A A S y@z@A@/+j   ",
"  B@C@D@E@F@<.o 7 G@H@I@<.o p.J@K@6@@@L@A K M ..V.e y A A z J.M@I.l@].S w y A r A S N@O@P@Q@R@  ",
"  W S@T@I U@C.C.8.V@I.W@e o.w y ] b I.m@w C.M ..V.e y A A R y X@<@%+/.y S R R+x y 7 Y@Z@`@ #.#  ",
"  +#@###$#%#n y V.t.&#*#e.o o o y S+H@T.M M M ..V.e y A A : =#@@-#: J.].d L Q+b L e ;#>#7@,#'#  ",
"  )#!#~#M+{#C.A ]#I.^#8.C.K K o c /#(#>+^ o.M ..V.e y y ] 8.k@_#5 ^.,@:#2+<#H@>@n x S [#}#|#k.  ",
"  1#2#3#4#S.n C.!.5#a@c K K K K S.p '+5+..y M ..V.e y A ^.5#I.0 J@u 6#I.7#[+<+8#8.e $.9#0#a#b#  ",
"  c#d#e#f#g#K o L z 5 o K K K K n 6 h#I.:.z S.V.V.] w [.S v@I.i#I.'@j#+.j@k#z d 7 y l#m#n#o#O.  ",
"  e@p#q#r#M K K o o K K K K K K K L s#t#&+q 5 V.V.] w [.7 w@u#v#w#V.n )+: ].R r A A e x#y#z#A#  ",
"  B#C#D#E#c o K K K K K K K K K K o o.L 8 _ 5 ..V.e y 7 A {.=+r /.].x e 7 y w y A y e C.F#G#i   ",
"^+H#I#h@b.6 5 S.C.n p K K o K K K K p 5 S._ M ..V.e y A y )+/.%.r A w y y z 7 S J#e K#g#L#M#N#O#",
"P#Q#R#S#T#U#V#W#D.K S.c c M n p K K o o o o 5 ..V.e y A A A y y A 7 [.%.] $.z L X#/#B+Y#Z#`# $.$",
"+$@$#$$$%$&$*$=$-$;$>$,$k#{ C.c L M <.n p _ M '$)$$.w A 7 r e %.%.S e.o !$~$..{$]$^$/$($_$:$<$[$",
"}$|$1$2$3$4$5$6$7$8$9$0$a$:#b$c$d$b._ M L c 6 e$..d ] f$e A S.g$h$i$j$+@k$l$%$m$n$o$p$q$r$s$t$u$",
"v$w$x$x.y$z$A$B$C$D$E$F$G$H$I$J$K$|.L$+@M$B+8 N$:@;#O$P$Q$E.'$R$S$T$U$V$W$X$Y$Z$`$ %.%+%x.@%}$#%",
"        $%%%&%*%=%-%;%>%B$,%'%)%!%~%{%]%^%/%(%_%:%<%[%T }%|%1%R.2%3%4%5%6%7%8%9%0%a%b%c%        ",
"                    d%e%f%g%h%i%j%k%l%m%n%o%p%q%r%s%t%u%v%w%x%y%z%A%B%C%D%E%                    ",
"                                F%G%H%I%J%K%L%M%N%O%P%Q%&@R%S%T%U%                              ",
"                                          V%W%X%Y%Z%b%                                          "};
