/* XPM */
static char * left_xpm[] = {
"16 16 29 1",
" 	c None",
".	c #000000",
"+	c #CDDECB",
"@	c #B1C9B0",
"#	c #B4CBB2",
"$	c #B5CEB5",
"%	c #B9CEB7",
"&	c #BAD1BA",
"*	c #BBD0B9",
"=	c #B2C9B0",
"-	c #7EAB78",
";	c #AAC7A8",
">	c #B3CAB1",
",	c #B0C9B0",
"'	c #AEC7AC",
")	c #AAC5A8",
"!	c #A9C4A7",
"~	c #698267",
"{	c #2D2D2D",
"]	c #CFDFCC",
"^	c #ADC8AB",
"/	c #B0C7AE",
"(	c #ADC6AB",
"_	c #678C63",
":	c #3C5235",
"<	c #5B7950",
"[	c #4A6342",
"}	c #3B5035",
"|	c #415639",
"                ",
"       .        ",
"      ..        ",
"     .+.        ",
"    .+@.......  ",
"   .+#$%&%*=-.  ",
"  .+;>,'))'!~.  ",
" {]^/((;'''^_.  ",
"  .:<<<<<<<<[.  ",
"   .:<<}}}}}|.  ",
"    .:<.......  ",
"     .:.        ",
"      ..        ",
"       .        ",
"                ",
"                "};
