/* XPM */
static char * plugin_xpm[] = {
"14 14 99 2",
"  	c None",
". 	c #3C3C3C",
"+ 	c #C8C8C8",
"@ 	c #D4D4D4",
"# 	c #D5D5D5",
"$ 	c #D3D3D3",
"% 	c #A7A7A7",
"& 	c #5A5A5A",
"* 	c #4C4C4C",
"= 	c #FEFEFE",
"- 	c #FFFFFF",
"; 	c #D2D2D2",
"> 	c #DADADA",
", 	c #484848",
"' 	c #FCFCFC",
") 	c #FCFCFB",
"! 	c #FBFBFA",
"~ 	c #C8C8C7",
"{ 	c #F7F7F7",
"] 	c #CCCCCC",
"^ 	c #4E4E4E",
"/ 	c #FAFAFA",
"( 	c #F9F9F8",
"_ 	c #F8F8F7",
": 	c #F8F7F6",
"< 	c #AEAEAD",
"[ 	c #5C5B5B",
"} 	c #4C4C4B",
"| 	c #2F2F2E",
"1 	c #0E0D0C",
"2 	c #A6A6A5",
"3 	c #000000",
"4 	c #515151",
"5 	c #EFEFED",
"6 	c #DEDDDB",
"7 	c #CBCAC8",
"8 	c #9A9894",
"9 	c #262522",
"0 	c #FAF9F8",
"a 	c #A4A3A2",
"b 	c #F3F3F1",
"c 	c #D7D7D5",
"d 	c #9F9E9D",
"e 	c #EBEAE8",
"f 	c #E2E1DF",
"g 	c #B9B7B2",
"h 	c #2A2825",
"i 	c #A1A1A0",
"j 	c #A0A09E",
"k 	c #868584",
"l 	c #B7B6B5",
"m 	c #E6E5E2",
"n 	c #E3E2DF",
"o 	c #CAC7C2",
"p 	c #2E2C29",
"q 	c #F5F5F4",
"r 	c #9F9F9E",
"s 	c #4F4E4E",
"t 	c #9D9C9B",
"u 	c #E8E7E5",
"v 	c #E4E3E0",
"w 	c #E1E0DC",
"x 	c #CBC8C2",
"y 	c #2F2E2A",
"z 	c #F2F1F0",
"A 	c #9C9B9A",
"B 	c #E9E8E5",
"C 	c #E8E7E4",
"D 	c #E7E6E3",
"E 	c #E5E3E0",
"F 	c #E2E0DD",
"G 	c #DEDDD9",
"H 	c #C8C6BF",
"I 	c #2F2D2A",
"J 	c #EDECEA",
"K 	c #989895",
"L 	c #E4E3DF",
"M 	c #E3E2DE",
"N 	c #DBD9D5",
"O 	c #C5C2BB",
"P 	c #2E2D29",
"Q 	c #454545",
"R 	c #E1DFDC",
"S 	c #E0DFDB",
"T 	c #DFDDD9",
"U 	c #DCDAD6",
"V 	c #D8D6D2",
"W 	c #C3C0B9",
"X 	c #2E2E2C",
"Y 	c #94928B",
"Z 	c #97938C",
"` 	c #97938B",
" .	c #96938B",
"..	c #96928A",
"+.	c #959189",
"@.	c #949088",
"#.	c #918E86",
"$.	c #817D75",
"%.	c #1F1E1B",
"                            ",
"  . + @ @ @ # $ % &         ",
"  * = - - - - = ; > ,       ",
"  * - - = ' ) ! ~ { ] ^     ",
"  * = ' / ( _ : < [ } | 1   ",
"  * ) 2 3 3 3 4 5 6 7 8 9   ",
"  * 0 a 3 b c 3 d e f g h   ",
"  * : i 3 j k 3 l m n o p   ",
"  * q r 3 s s t u v w x y   ",
"  * z A 3 B C D E F G H I   ",
"  * J K 3 L L M w G N O P   ",
"  Q f R S S S S T U V W p   ",
"  X Y Z `  .....+.@.#.$.%.  ",
"                            "};
