/* XPM */
static char * register_xpm[] = {
"14 14 101 2",
"  	c None",
". 	c #3C3C3C",
"+ 	c #C8C8C8",
"@ 	c #D4D4D4",
"# 	c #D5D5D5",
"$ 	c #D3D3D3",
"% 	c #A7A7A7",
"& 	c #5A5A5A",
"* 	c #4C4C4C",
"= 	c #FEFEFE",
"- 	c #FFFFFF",
"; 	c #D2D2D2",
"> 	c #DADADA",
", 	c #484848",
"' 	c #FCFCFC",
") 	c #FCFCFB",
"! 	c #FBFBFA",
"~ 	c #C8C8C7",
"{ 	c #F7F7F7",
"] 	c #CCCCCC",
"^ 	c #4E4E4E",
"/ 	c #FAFAFA",
"( 	c #F9F9F8",
"_ 	c #F8F8F7",
": 	c #F8F7F6",
"< 	c #AEAEAD",
"[ 	c #5C5B5B",
"} 	c #4C4C4B",
"| 	c #2F2F2E",
"1 	c #0E0D0C",
"2 	c #C0AAA9",
"3 	c #4F0C0C",
"4 	c #612626",
"5 	c #CBBDBB",
"6 	c #DEDDDB",
"7 	c #CBCAC8",
"8 	c #9A9894",
"9 	c #262522",
"0 	c #FAF9F8",
"a 	c #BEA7A6",
"b 	c #F3F3F1",
"c 	c #F2F2F0",
"d 	c #733F3E",
"e 	c #845756",
"f 	c #EBEAE8",
"g 	c #E2E1DF",
"h 	c #B9B7B2",
"i 	c #2A2825",
"j 	c #BBA5A4",
"k 	c #BAA4A2",
"l 	c #BBA4A2",
"m 	c #612525",
"n 	c #A58786",
"o 	c #E6E5E2",
"p 	c #E3E2DF",
"q 	c #CAC7C2",
"r 	c #2E2C29",
"s 	c #F5F5F4",
"t 	c #B9A3A2",
"u 	c #835656",
"v 	c #602525",
"w 	c #C6B6B5",
"x 	c #E4E3E0",
"y 	c #E1E0DC",
"z 	c #CBC8C2",
"A 	c #2F2E2A",
"B 	c #F2F1F0",
"C 	c #B69F9E",
"D 	c #E9E8E5",
"E 	c #E8E7E4",
"F 	c #B39B99",
"G 	c #E2E0DD",
"H 	c #DEDDD9",
"I 	c #C8C6BF",
"J 	c #2F2D2A",
"K 	c #EDECEA",
"L 	c #B39C99",
"M 	c #E4E3DF",
"N 	c #5F2423",
"O 	c #A0827F",
"P 	c #DBD9D5",
"Q 	c #C5C2BB",
"R 	c #2E2D29",
"S 	c #454545",
"T 	c #E1DFDC",
"U 	c #E0DFDB",
"V 	c #DFDDD9",
"W 	c #DCDAD6",
"X 	c #D8D6D2",
"Y 	c #C3C0B9",
"Z 	c #2E2E2C",
"` 	c #94928B",
" .	c #97938C",
"..	c #97938B",
"+.	c #96938B",
"@.	c #96928A",
"#.	c #959189",
"$.	c #949088",
"%.	c #918E86",
"&.	c #817D75",
"*.	c #1F1E1B",
"                            ",
"  . + @ @ @ # $ % &         ",
"  * = - - - - = ; > ,       ",
"  * - - = ' ) ! ~ { ] ^     ",
"  * = ' / ( _ : < [ } | 1   ",
"  * ) 2 3 3 3 4 5 6 7 8 9   ",
"  * 0 a 3 b c d e f g h i   ",
"  * : j 3 k l m n o p q r   ",
"  * s t 3 u u v w x y z A   ",
"  * B C 3 D E 3 F G H I J   ",
"  * K L 3 M M N O H P Q R   ",
"  S g T U U U U V W X Y r   ",
"  Z `  ...+.@.@.#.$.%.&.*.  ",
"                            "};
